<?xml version="1.0" encoding="utf-8"?>
<!-- Generator: Adobe Illustrator 26.2.1, SVG Export Plug-In . SVG Version: 6.00 Build 0)  -->
<svg version="1.1" id="Layer_1" xmlns="http://www.w3.org/2000/svg" xmlns:xlink="http://www.w3.org/1999/xlink" x="0px" y="0px"
	 width="9.2px" height="8.9px" viewBox="0 0 9.2 8.9" style="enable-background:new 0 0 9.2 8.9;" xml:space="preserve">
<style type="text/css">
	.st0{fill:#fff;}
</style>
<path id="noun_cancel_2191250_1_" class="st0" d="M9,0.2C8.7-0.1,8.3-0.1,8,0.2L4.6,3.5L1.1,0.2c-0.3-0.3-0.7-0.3-0.9,0
	c-0.3,0.2-0.3,0.6,0,0.9c0,0,0,0,0,0l3.4,3.3L0.2,7.8c-0.3,0.2-0.3,0.6,0,0.9c0,0,0,0,0,0C0.5,9,0.9,9,1.1,8.7l3.4-3.3L8,8.7
	C8.3,9,8.7,9,9,8.7c0.3-0.2,0.3-0.6,0-0.9c0,0,0,0,0,0L5.5,4.5L9,1.1C9.2,0.9,9.2,0.5,9,0.2C9,0.2,9,0.2,9,0.2z"/>
</svg>
