<?xml version="1.0" encoding="UTF-8"?>
<svg id="svg111" xmlns="http://www.w3.org/2000/svg" width="20" height="20" xmlns:xlink="http://www.w3.org/1999/xlink" viewBox="0 0 20 20">
  <defs>
    <style>
      .cls-1 {
        fill: #fff;
      }

      .cls-2 {
        clip-path: url(#clippath);
      }

      .cls-3 {
        fill: none;
      }
    </style>
    <clipPath id="clippath">
      <rect class="cls-3" width="20" height="20"/>
    </clipPath>
  </defs>
  <g id="g117">
    <g id="g119">
      <g class="cls-2">
        <g id="g121">
          <g id="g127">
            <g id="path129">
              <path class="cls-1" d="m10.63,20h-1.26c-1.02,0-1.84-.83-1.84-1.84v-.42c-.43-.14-.85-.31-1.25-.52l-.3.3c-.35.35-.81.54-1.3.54s-.96-.2-1.3-.54l-.89-.89c-.34-.34-.54-.82-.54-1.3s.19-.95.54-1.3l.3-.3c-.21-.4-.38-.82-.52-1.25h-.42C.83,12.47,0,11.64,0,10.63v-1.26C0,8.36.83,7.53,1.84,7.53h.42c.14-.43.31-.85.52-1.25l-.3-.3c-.35-.35-.54-.81-.54-1.3s.2-.96.54-1.3l.89-.89c.34-.34.82-.54,1.3-.54s.95.19,1.3.54l.3.3c.4-.21.82-.38,1.25-.52v-.42C7.53.83,8.36,0,9.37,0h1.26C11.64,0,12.47.83,12.47,1.84v.42c.43.14.85.31,1.25.52l.3-.3c.35-.35.81-.54,1.3-.54s.96.2,1.3.54l.89.89c.34.34.54.82.54,1.3s-.19.95-.54,1.3l-.3.3c.21.4.38.82.52,1.25h.42c1.02,0,1.84.83,1.84,1.84v1.26c0,1.02-.83,1.84-1.84,1.84h-.42c-.14.43-.31.85-.52,1.25l.3.3c.35.35.54.81.54,1.3s-.2.96-.54,1.3l-.89.89c-.34.34-.82.54-1.3.54s-.95-.19-1.3-.54l-.3-.3c-.4.21-.82.38-1.25.52v.42c0,1.02-.83,1.84-1.84,1.84Zm-4.45-4.1c.1,0,.21.03.3.08.56.33,1.16.58,1.79.74.26.07.44.3.44.57v.87c0,.37.3.67.67.67h1.26c.37,0,.67-.3.67-.67v-.87c0-.27.18-.5.44-.57.63-.16,1.23-.41,1.79-.74.23-.14.52-.1.71.09l.61.61c.13.13.29.2.47.2s.35-.07.47-.2l.89-.89c.12-.12.2-.3.2-.47s-.07-.35-.2-.47l-.61-.61c-.19-.19-.23-.48-.09-.71.33-.56.58-1.16.74-1.79.07-.26.3-.44.57-.44h.87c.37,0,.67-.3.67-.67v-1.26c0-.37-.3-.67-.67-.67h-.87c-.27,0-.5-.18-.57-.44-.16-.63-.41-1.23-.74-1.79-.14-.23-.1-.52.09-.71l.61-.61c.13-.13.2-.29.2-.47s-.07-.35-.2-.47l-.89-.89c-.12-.12-.3-.2-.47-.2s-.35.07-.47.2l-.61.61c-.19.19-.48.23-.71.09-.56-.33-1.16-.58-1.79-.74-.26-.07-.44-.3-.44-.57v-.87c0-.37-.3-.67-.67-.67h-1.26c-.37,0-.67.3-.67.67v.87c0,.27-.18.5-.44.57-.63.16-1.23.41-1.79.74-.23.14-.52.1-.71-.09l-.61-.61c-.13-.13-.29-.2-.47-.2s-.35.07-.47.2l-.89.89c-.12.12-.2.3-.2.47s.07.35.2.47l.61.61c.19.19.23.48.09.71-.33.56-.58,1.16-.74,1.79-.07.26-.3.44-.57.44h-.87c-.37,0-.67.3-.67.67v1.26c0,.37.3.67.67.67h.87c.27,0,.5.18.57.44.16.63.41,1.23.74,1.79.14.23.1.52-.09.71l-.61.61c-.13.13-.2.29-.2.47s.07.35.2.47l.89.89c.12.12.3.2.47.2s.35-.07.47-.2l.61-.61c.11-.11.26-.17.41-.17Z"/>
            </g>
          </g>
          <g id="g131">
            <g id="path133">
              <path class="cls-1" d="m10,14.35c-2.4,0-4.35-1.95-4.35-4.35s1.95-4.35,4.35-4.35,4.35,1.95,4.35,4.35-1.95,4.35-4.35,4.35Zm0-7.53c-1.75,0-3.18,1.43-3.18,3.18s1.43,3.18,3.18,3.18,3.18-1.43,3.18-3.18-1.43-3.18-3.18-3.18Z"/>
            </g>
          </g>
        </g>
      </g>
    </g>
  </g>
</svg>