<?xml version="1.0" encoding="UTF-8"?>
<svg id="Layer_1" data-name="Layer 1" xmlns="http://www.w3.org/2000/svg" width="20" height="20" viewBox="0 0 20 20">
  <defs>
    <style>
      .cls-1 {
        fill: #fff;
      }
    </style>
  </defs>
  <path class="cls-1" d="m17.07,2.93c-1.89-1.89-4.4-2.93-7.07-2.93S4.82,1.04,2.93,2.93,0,7.33,0,10s1.04,5.18,2.93,7.07,4.4,2.93,7.07,2.93,5.18-1.04,7.07-2.93,2.93-4.4,2.93-7.07-1.04-5.18-2.93-7.07Zm-12.73,13.84c.33-2.84,2.77-5.03,5.66-5.03,1.52,0,2.95.59,4.03,1.67.91.91,1.48,2.1,1.63,3.37-1.53,1.28-3.51,2.06-5.66,2.06s-4.13-.77-5.66-2.06Zm5.66-6.24c-1.67,0-3.04-1.36-3.04-3.04s1.36-3.04,3.04-3.04,3.04,1.36,3.04,3.04-1.36,3.04-3.04,3.04Zm6.67,5.25c-.3-1.2-.92-2.31-1.81-3.2-.72-.72-1.57-1.26-2.5-1.6,1.12-.76,1.85-2.04,1.85-3.49,0-2.32-1.89-4.21-4.21-4.21s-4.21,1.89-4.21,4.21c0,1.45.74,2.73,1.85,3.49-.85.31-1.65.79-2.33,1.43-.99.92-1.67,2.09-1.99,3.37-1.34-1.55-2.16-3.57-2.16-5.78C1.17,5.13,5.13,1.17,10,1.17s8.83,3.96,8.83,8.83c0,2.21-.81,4.23-2.16,5.78Z"/>
</svg>